<?xml version="1.0" standalone="no"?>
<!DOCTYPE svg PUBLIC "-//W3C//DTD SVG 20010904//EN"
 "http://www.w3.org/TR/2001/REC-SVG-20010904/DTD/svg10.dtd">
<svg version="1.0" xmlns="http://www.w3.org/2000/svg"
 width="260.000000pt" height="260.000000pt" viewBox="0 0 260.000000 260.000000"
 preserveAspectRatio="xMidYMid meet">
<metadata>
Created by potrace 1.11, written by Peter Selinger 2001-2013
</metadata>
<g transform="translate(0.000000,260.000000) scale(0.100000,-0.100000)"
fill="#000000" stroke="none">
<path d="M900 1914 c-64 -17 -142 -56 -185 -92 -71 -59 -83 -115 -36 -163 42
-42 81 -39 146 11 28 22 71 47 96 55 100 36 225 12 299 -56 119 -111 236 -158
378 -153 115 3 226 49 305 125 51 50 59 78 32 129 -28 55 -97 57 -157 6 -63
-54 -138 -79 -220 -73 -76 6 -126 29 -194 88 -109 94 -197 131 -324 135 -51 1
-107 -3 -140 -12z"/>
<path d="M908 1544 c-78 -18 -144 -53 -206 -109 -63 -57 -70 -95 -24 -146 41
-46 99 -41 154 14 41 42 102 62 188 62 96 0 149 -19 210 -78 160 -153 391
-187 579 -87 143 77 180 168 93 226 -39 26 -79 20 -121 -20 -55 -52 -110 -71
-201 -71 -97 0 -148 19 -213 81 -52 49 -141 102 -207 121 -71 21 -180 24 -252
7z"/>
<path d="M921 1174 c-87 -18 -164 -57 -223 -114 -52 -51 -60 -79 -33 -130 28
-55 96 -57 159 -5 65 53 129 75 212 71 82 -4 143 -32 218 -100 184 -169 474
-165 660 8 18 18 30 40 33 66 5 34 1 43 -26 71 -28 27 -37 31 -71 26 -26 -3
-54 -18 -81 -41 -91 -77 -234 -91 -334 -32 -22 14 -58 41 -80 61 -119 108
-277 151 -434 119z"/>
</g>
</svg>
